<?xml version="1.0" standalone="no"?><!DOCTYPE svg PUBLIC "-//W3C//DTD SVG 1.1//EN" "http://www.w3.org/Graphics/SVG/1.1/DTD/svg11.dtd"><svg t="1755594628783" class="icon" viewBox="0 0 1024 1024" version="1.1" xmlns="http://www.w3.org/2000/svg" p-id="14610" xmlns:xlink="http://www.w3.org/1999/xlink" width="200" height="200"><path d="M881.712401 743.824923c-20.261017-46.150095-49.322274-87.695413-86.262816-123.203358-36.838213-35.507944-79.816129-63.443589-127.603478-82.88598-10.130509-4.093135-20.363346-7.776956-30.698511-11.051464 66.104127-41.647647 107.95643-115.324073 107.95643-199.233337 0-129.95703-103.351654-232.080743-233.308684-232.080743s-233.206356 102.123713-233.206356 232.080743c0 83.909264 41.749975 157.58569 107.854102 199.233337-10.335165 3.274508-20.568002 6.958329-30.698511 11.051464-47.787349 19.44239-90.765264 47.378035-127.603478 82.88598-36.940542 35.610273-66.001799 77.053263-86.262816 123.203358-21.079644 47.889677-31.721795 98.849206-31.721795 151.241331l55.25732 0c0-88.616369 35.917258-172.01399 101.10043-234.741281 64.262216-61.908664 149.501749-96.495653 240.369341-97.723593 1.637254 0 3.274508 0.102328 4.911762 0.102328s3.274508 0 4.911762-0.102328c90.867593 1.22794 176.004797 35.81493 240.369341 97.723593 65.183172 62.727291 101.10043 146.124913 101.10043 234.741281l55.25732 0C913.434196 842.674128 902.792046 791.816928 881.712401 743.824923zM384.498851 454.747277c-33.973019-33.973019-50.550215-79.202158-50.550215-127.398821 0-48.094334 16.577196-93.323474 50.550215-127.398821s79.202158-49.424603 127.398821-49.424603c48.094334 0 93.323474 16.474868 127.398821 50.447886s50.652543 78.178875 50.652543 126.375537c0 48.094334-16.679524 93.323474-50.652543 127.398821-32.745078 32.745078-75.927651 51.368842-121.975417 52.699111-1.739582 0-3.581493 0-5.321075 0-1.739582 0-3.581493 0-5.321075 0C460.426501 506.116119 417.243929 487.594684 384.498851 454.747277z" p-id="14611" fill="#1296db"></path></svg>